<svg width="393" height="393" viewBox="0 0 393 393" fill="none" xmlns="http://www.w3.org/2000/svg">
<path opacity="0.34" d="M324.814 321.434H81.4689C78.3642 321.434 75.849 318.919 75.849 315.815C75.849 312.71 78.3642 310.195 81.4689 310.195H324.814C327.919 310.195 330.435 312.71 330.435 315.815C330.435 318.919 327.919 321.434 324.814 321.434Z" fill="black"/>
<path d="M250.895 315.824H257.969V209.4H250.895V315.824Z" fill="#2F262D"/>
<path d="M223.97 230.848C222.831 228.293 223.97 225.267 226.565 224.088C227.232 223.814 227.94 223.657 228.648 223.657C230.651 223.657 232.499 224.836 233.324 226.683L258.476 283.353L249.122 287.519L223.97 230.848Z" fill="#FC9F6F"/>
<path d="M181.921 315.824H188.995V209.4H181.921V315.824Z" fill="#2F262D"/>
<path d="M214.656 216.347C190.33 216.347 170.64 197.797 170.64 174.963C170.64 169.068 171.977 163.448 174.335 158.339C158.85 164.745 148.043 179.326 148.043 196.225C148.043 219.098 167.733 237.608 192.059 237.608C210.098 237.608 225.582 227.429 232.381 212.849C226.918 215.089 220.944 216.347 214.656 216.347Z" fill="#F2F2F2"/>
<path d="M190.29 227.547C203.596 227.547 214.381 217.641 214.381 205.421C214.381 193.202 203.596 183.295 190.29 183.295C176.986 183.295 166.199 193.202 166.199 205.421C166.199 217.641 176.986 227.547 190.29 227.547Z" fill="#3B323A"/>
<path d="M146.904 209.391H93.0231C90.9795 209.391 89.2896 207.7 89.2896 205.657V202.12C89.2896 200.077 90.9795 198.387 93.0231 198.387H146.904C148.947 198.387 150.637 200.077 150.637 202.12V205.657C150.637 207.7 148.947 209.391 146.904 209.391Z" fill="#AFAFAF"/>
<path d="M211.159 188.562C203.614 188.562 197.483 182.43 197.483 174.885V161.208C197.483 155.981 193.278 151.776 188.051 151.776V174.885C188.051 187.658 198.387 197.994 211.159 197.994H230.298V188.562H211.159Z" fill="#EF9067"/>
<path d="M214.263 116.368C212.849 134.249 197.129 154.056 182.43 151.541C168.361 149.144 158.694 126.939 163.448 111.376C166.396 101.787 174.492 95.7741 181.016 90.9402C187.776 85.9098 192.334 82.53 197.522 83.3553C207.819 84.9273 215.404 102.141 214.263 116.368Z" fill="#603936"/>
<path d="M194.417 167.261C194.142 166.947 191.941 164.392 191.548 164.038C190.527 159.833 188.443 155.195 188.876 149.773C185.929 147.611 181.055 144.86 175.514 145.253C173.863 145.37 172.134 145.763 171.27 145.96C166.475 147.06 163.448 148.829 162.466 149.418C161.13 150.244 160.462 150.637 159.676 151.423C157.553 153.623 157.043 156.296 156.767 157.868C154.409 171.544 156.257 184.67 156.492 185.811C156.925 187.894 157.515 189.741 157.515 189.741C158.497 192.845 159.676 194.771 159.991 195.636C161.563 199.88 165.138 208.801 168.912 215.6C171.663 216.032 177.911 218.783 182.037 217.369C188.325 215.207 201.294 210.373 205.932 209.391C200.155 202.906 194.85 195.674 193.474 186.871C193.12 184.592 192.806 182.352 192.57 180.151C193.12 179.876 196.46 178.186 197.129 174.807C197.836 171.151 194.968 167.889 194.417 167.261Z" fill="#F05364"/>
<path d="M180.225 158.965C183.654 158.009 185.53 153.998 184.417 150.004C183.304 146.011 179.621 143.549 176.192 144.505C172.764 145.461 170.887 149.473 172.001 153.466C173.114 157.46 176.797 159.922 180.225 158.965Z" fill="#EF9067"/>
<path d="M177.203 142.816C179.365 147.925 182.941 149.693 185.221 151.03C189.662 153.623 197.994 153.388 197.994 153.388C198.268 151.58 198.543 150.008 199.959 147.022C202.002 142.581 203.889 141.52 206.521 137.51C210.451 131.459 212.416 124.148 211.159 123.442C210.255 122.891 207.779 125.72 206.168 127.372C201.569 132.088 191.273 139.082 177.203 142.816Z" fill="#603936"/>
<path d="M177.046 154.056H175.396C171.781 154.056 168.872 151.148 168.872 147.532V122.734H181.919V149.143C181.919 151.855 179.719 154.056 177.046 154.056Z" fill="#EF9067"/>
<path d="M103.588 315.824H110.662V209.4H103.588V315.824Z" fill="#2F262D"/>
<path d="M147.098 315.824H154.172V209.4H147.098V315.824Z" fill="#494149"/>
<path d="M293.473 315.824H300.547V209.4H293.473V315.824Z" fill="#494149"/>
<path opacity="0.71" d="M168.872 125.367C169.736 132.874 174.925 139.082 181.919 141.44V121.241H168.872V125.367Z" fill="#D36B46"/>
<path d="M188.051 140.458C178.462 140.458 170.719 132.716 170.719 123.127V101.983C170.719 101.08 171.426 100.372 172.331 100.372H196.971C201.609 100.372 205.382 104.145 205.382 108.783V123.127C205.382 132.716 197.639 140.458 188.051 140.458Z" fill="#FC9F6F"/>
<path d="M205.382 120.651C205.186 121.122 204.713 121.437 204.203 121.437H196.578C195.871 121.437 195.281 120.847 195.281 120.14V115.857C195.281 115.149 195.871 114.559 196.578 114.559H204.203C204.713 114.559 205.186 114.874 205.382 115.345V113.695C205.028 113.499 204.635 113.38 204.203 113.38H196.578C195.203 113.38 194.102 114.481 194.102 115.857V120.14C194.102 121.515 195.203 122.616 196.578 122.616H204.203C204.635 122.616 205.028 122.498 205.382 122.301V120.651Z" fill="#DD9883"/>
<path d="M190.055 121.987H182.43C181.37 121.987 180.544 121.122 180.544 120.101V115.817C180.544 114.756 181.409 113.93 182.43 113.93H190.055C191.116 113.93 191.941 114.796 191.941 115.817V120.101C191.941 121.162 191.076 121.987 190.055 121.987Z" stroke="#DD9883" stroke-width="3" stroke-miterlimit="10" stroke-linecap="round" stroke-linejoin="round"/>
<path opacity="0.6" d="M181.488 126.428V105.284C181.488 104.381 182.195 103.673 183.098 103.673L197.326 98.6823C195.792 96.678 199.684 100.411 196.971 100.411H172.331C171.426 100.411 170.719 101.119 170.719 102.023V123.166C170.719 132.756 178.462 140.498 188.05 140.498C188.247 140.498 188.443 140.498 188.68 140.498C184.317 137.314 181.488 132.205 181.488 126.428Z" fill="#EF9067"/>
<path d="M204.203 121.201H196.578C195.517 121.201 194.692 120.336 194.692 119.315V115.031C194.692 113.97 195.557 113.144 196.578 113.144H204.203C205.264 113.144 206.089 114.01 206.089 115.031V119.315C206.089 120.376 205.224 121.201 204.203 121.201Z" stroke="#F6CDF7" stroke-width="3" stroke-miterlimit="10" stroke-linecap="round" stroke-linejoin="round"/>
<path d="M192.57 131.733C190.369 131.733 188.6 129.965 188.6 127.803V125.956H196.46V127.803C196.46 129.965 194.731 131.733 192.57 131.733Z" fill="#FCFAFA"/>
<path d="M185.456 116.681H188.993" stroke="#161515" stroke-width="3" stroke-miterlimit="10" stroke-linecap="round" stroke-linejoin="round"/>
<path d="M198.818 116.681H202.355" stroke="#161515" stroke-width="3" stroke-miterlimit="10" stroke-linecap="round" stroke-linejoin="round"/>
<path d="M190.055 121.201H182.43C181.37 121.201 180.544 120.336 180.544 119.315V115.031C180.544 113.97 181.409 113.144 182.43 113.144H190.055C191.116 113.144 191.941 114.01 191.941 115.031V119.315C191.941 120.376 191.076 121.201 190.055 121.201Z" stroke="#F6CDF7" stroke-width="3" stroke-miterlimit="10" stroke-linecap="round" stroke-linejoin="round"/>
<path d="M195.321 84.4557C190.565 78.3249 182.47 78.4428 180.977 78.2856C179.641 78.0105 172.291 78.3642 166.907 79.779C154.489 83.0802 145.843 94.32 145.843 107.211V123.717C145.843 134.799 154.016 148.239 164.51 151.738C170.326 153.703 176.772 155.195 178.304 154.96C170.522 140.537 171.584 132.008 173.784 127.017C179.051 114.834 194.495 115.267 198.308 101.708C198.387 101.315 200.783 91.5297 195.321 84.4557Z" fill="#754743"/>
<path d="M243.817 197.875C244.21 196.853 244.406 195.754 244.406 194.613C244.406 189.386 240.201 185.181 234.974 185.181C229.748 185.181 225.542 189.386 225.542 194.613C225.542 195.754 225.739 196.853 226.132 197.875H243.817Z" fill="#EF9067"/>
<path d="M213.556 198.387C212.77 194.771 208.408 192.02 203.103 192.02C197.836 192.02 193.434 194.771 192.648 198.387H213.556Z" fill="#F4EFF0"/>
<path d="M161.798 170.877C164.967 170.877 167.536 166.847 167.536 161.876C167.536 156.906 164.967 152.877 161.798 152.877C158.629 152.877 156.061 156.906 156.061 161.876C156.061 166.847 158.629 170.877 161.798 170.877Z" fill="#EF9067"/>
<path d="M179.168 188.876C171.623 188.876 165.493 182.745 165.493 175.2V158.497C165.493 155.903 163.37 153.781 160.777 153.781C158.182 153.781 156.061 155.903 156.061 158.497V175.2C156.061 187.972 166.396 198.308 179.168 198.308H198.308V188.876H188.718H179.168Z" fill="#FC9F6F"/>
<path d="M258.634 198.387H214.618C214.067 198.387 213.596 197.915 213.596 197.364C213.596 196.815 214.067 196.343 214.618 196.343H258.672C259.223 196.343 259.695 196.815 259.695 197.364C259.695 197.915 259.223 198.387 258.634 198.387Z" fill="white"/>
<path d="M258.634 197.364H214.618C214.225 197.364 213.91 197.168 213.714 196.853C213.635 197.011 213.556 197.168 213.556 197.364C213.556 197.915 214.028 198.387 214.578 198.387H258.634C259.183 198.387 259.655 197.915 259.655 197.364C259.655 197.168 259.616 197.011 259.498 196.853C259.34 197.129 259.027 197.364 258.634 197.364Z" fill="#F4EFF0"/>
<path d="M223.146 198.387H214.618C214.067 198.387 213.596 197.915 213.596 197.364C213.596 196.815 214.067 196.343 214.618 196.343H223.146C223.695 196.343 224.167 196.815 224.167 197.364C224.167 197.915 223.735 198.387 223.146 198.387Z" fill="#F4EFF0"/>
<path d="M255.528 196.343H252.306V195.596C252.306 195.203 252.621 194.85 253.052 194.85H254.782C255.175 194.85 255.528 195.164 255.528 195.596V196.343Z" fill="#F4EFF0"/>
<path d="M251.598 196.343H248.376V195.596C248.376 195.203 248.691 194.85 249.122 194.85H250.852C251.245 194.85 251.598 195.164 251.598 195.596V196.343Z" fill="#F4EFF0"/>
<path d="M247.668 196.343H244.446V195.596C244.446 195.203 244.761 194.85 245.192 194.85H246.922C247.315 194.85 247.668 195.164 247.668 195.596V196.343Z" fill="#F4EFF0"/>
<path d="M243.738 196.343H240.516V195.596C240.516 195.203 240.831 194.85 241.262 194.85H242.992C243.385 194.85 243.738 195.164 243.738 195.596V196.343Z" fill="#F4EFF0"/>
<path d="M239.808 196.343H236.586V195.596C236.586 195.203 236.901 194.85 237.332 194.85H239.062C239.455 194.85 239.808 195.164 239.808 195.596V196.343Z" fill="#F4EFF0"/>
<path d="M235.878 196.343H232.656V195.596C232.656 195.203 232.971 194.85 233.402 194.85H235.132C235.525 194.85 235.878 195.164 235.878 195.596V196.343Z" fill="#F4EFF0"/>
<path d="M231.948 196.343H228.726V195.596C228.726 195.203 229.041 194.85 229.472 194.85H231.202C231.595 194.85 231.948 195.164 231.948 195.596V196.343Z" fill="#F4EFF0"/>
<path d="M228.018 196.343H224.796V195.596C224.796 195.203 225.111 194.85 225.542 194.85H227.272C227.665 194.85 228.018 195.164 228.018 195.596V196.343Z" fill="#F4EFF0"/>
<path d="M224.088 196.343H220.866V195.596C220.866 195.203 221.181 194.85 221.612 194.85H223.342C223.735 194.85 224.088 195.164 224.088 195.596V196.343Z" fill="#F4EFF0"/>
<path d="M220.158 196.343H216.936V195.596C216.936 195.203 217.251 194.85 217.682 194.85H219.412C219.805 194.85 220.158 195.164 220.158 195.596V196.343Z" fill="#F4EFF0"/>
<path d="M214.618 198.387H223.146C223.695 198.387 224.167 197.915 224.167 197.364H213.556C213.556 197.915 214.028 198.387 214.618 198.387Z" fill="#E2E2E2"/>
<path d="M218.43 230.298H187.343L187.108 213.792H225.622C228.215 213.792 230.298 215.875 230.298 218.468C230.258 225.032 224.953 230.298 218.43 230.298Z" fill="#352934"/>
<path d="M193.434 290.152L212.495 225.7C213.124 223.539 215.128 222.045 217.407 222.045C217.879 222.045 218.39 222.123 218.861 222.242C221.574 223.028 223.106 225.897 222.32 228.608L203.259 293.06L193.434 290.152Z" fill="#EF9067"/>
<path d="M209.272 284.885L193.434 280.209L213.399 212.731C214.696 208.368 219.294 205.854 223.657 207.151C228.018 208.447 230.534 213.046 229.237 217.407L209.272 284.885Z" fill="#352934"/>
<path d="M287.951 179.286H221.927C220.63 179.286 219.569 178.225 219.569 176.928L227.744 129.768C227.744 128.471 228.804 127.41 230.102 127.41H296.126C297.423 127.41 298.484 128.471 298.484 129.768L290.309 176.928C290.309 178.225 289.288 179.286 287.951 179.286Z" fill="#CECECE"/>
<path d="M291.881 179.286H225.857C224.56 179.286 223.499 178.225 223.499 176.928L231.673 129.768C231.673 128.471 232.734 127.41 234.031 127.41H300.056C301.353 127.41 302.414 128.471 302.414 129.768L294.239 176.928C294.239 178.225 293.218 179.286 291.881 179.286Z" fill="#F4EFF0"/>
<path d="M271.72 195.832L266.297 168.361H256.629C255.45 168.361 254.546 169.461 254.782 170.602L259.577 194.85C259.773 195.754 259.065 196.578 258.161 196.578H252.266C251.205 196.578 250.381 197.443 250.381 198.465H260.284H269.48C270.934 198.505 271.996 197.208 271.72 195.832Z" fill="#CECECE"/>
<path d="M272.231 198.505H262.209L256.393 169.03C256.314 168.675 256.589 168.4 256.944 168.4H268.223L273.803 196.657C273.961 197.601 273.213 198.505 272.231 198.505Z" fill="#F4EFF0"/>
<path d="M260.323 198.505H262.209L261.698 195.832H259.773L260.323 198.505Z" fill="#F4EFF0"/>
<path d="M260.323 198.505C261.305 198.505 262.053 197.601 261.856 196.618L261.698 195.832H259.576L260.323 198.505Z" fill="#CECECE"/>
<path d="M268.969 154.292C266.847 154.292 265.118 152.562 265.118 150.441C265.118 149.733 265.315 149.104 265.628 148.554C265.079 148.397 264.489 148.279 263.86 148.279C260.519 148.279 257.848 150.99 257.848 154.292C257.848 157.593 260.559 160.304 263.86 160.304C267.2 160.304 269.873 157.593 269.873 154.292C269.873 154.252 269.873 154.213 269.873 154.174C269.558 154.252 269.283 154.292 268.969 154.292Z" fill="#CECECE"/>
<path d="M223.264 221.299L190.88 229.827C182.077 232.145 173.156 225.897 168.872 215.56L219.058 205.303C223.46 204.163 227.98 206.796 229.119 211.198C230.298 215.639 227.665 220.158 223.264 221.299Z" fill="#3B323A"/>
<path d="M255.843 270.424L240.752 277.143L214.303 217.644C212.456 213.477 214.342 208.605 218.508 206.758C222.674 204.91 227.547 206.796 229.394 210.963L255.843 270.424Z" fill="#3B323A"/>
<path d="M143.642 209.391H311.924C313.967 209.391 315.657 207.7 315.657 205.657V202.12C315.657 200.077 313.967 198.387 311.924 198.387H143.642C141.598 198.387 139.908 200.077 139.908 202.12V205.657C139.908 207.7 141.558 209.391 143.642 209.391Z" fill="#F2F2F2"/>
<path d="M280.445 289.563L247 295.654C245.703 295.889 244.486 295.065 244.21 293.846L243.975 292.785C243.307 289.719 245.272 286.615 248.494 285.789L272.86 279.62C277.576 278.441 282.331 280.602 283.196 284.572L283.51 285.986C283.864 287.598 282.489 289.208 280.445 289.563Z" fill="#535452"/>
<path d="M281.741 286.537L244.368 293.335C244.289 293.335 244.21 293.374 244.131 293.374L244.25 293.846C244.524 295.103 245.743 295.889 247.04 295.654L280.484 289.563C282.527 289.208 283.942 287.598 283.589 285.986L283.55 285.868C283 286.182 282.41 286.419 281.741 286.537Z" fill="#FFFDFD"/>
<path d="M211.394 310.588L183.453 291.253C182.392 290.505 182.077 289.051 182.785 287.991L183.374 287.047C185.063 284.414 188.68 283.589 191.509 285.318L213.084 298.209C217.289 300.723 219.098 305.636 216.896 309.016L216.11 310.234C215.246 311.609 213.084 311.767 211.394 310.588Z" fill="#424441"/>
<path d="M214.46 309.369L183.216 287.754C183.138 287.716 183.098 287.636 183.02 287.598L182.785 287.991C182.116 289.051 182.392 290.505 183.453 291.253L211.394 310.588C213.084 311.767 215.246 311.609 216.11 310.234L216.19 310.117C215.6 309.999 215.011 309.724 214.46 309.369Z" fill="#CECECE"/>
<path d="M134.013 198.387H127.647C124.424 198.387 121.79 195.754 121.79 192.53V175.2H139.868V192.53C139.908 195.754 137.275 198.387 134.013 198.387Z" fill="#FF6161"/>
<path d="M123.835 177.558C119.629 177.558 116.25 180.977 116.25 185.143C116.25 189.308 119.669 192.727 123.835 192.727C128 192.727 131.419 189.308 131.419 185.143C131.419 180.977 128 177.558 123.835 177.558ZM123.835 191.076C120.573 191.076 117.9 188.404 117.9 185.143C117.9 181.881 120.573 179.208 123.835 179.208C127.096 179.208 129.768 181.881 129.768 185.143C129.73 188.444 127.096 191.076 123.835 191.076Z" fill="#F4A36C"/>
<path d="M134.013 198.387H127.647C124.424 198.387 121.79 195.754 121.79 192.53V175.2H139.868V192.53C139.908 195.754 137.275 198.387 134.013 198.387Z" fill="#F7BC8B"/>
<path d="M130.358 192.885C128.551 192.885 127.096 191.431 127.096 189.623V175.2H121.79V192.53C121.79 195.754 124.424 198.387 127.647 198.387H134.013C137.117 198.387 139.672 195.95 139.868 192.885H130.358Z" fill="#EFA573"/>
<path d="M205.303 198.387C205.696 197.364 205.892 196.264 205.892 195.125C205.892 189.897 201.687 185.693 196.46 185.693C191.234 185.693 187.028 189.897 187.028 195.125C187.028 196.264 187.225 197.364 187.618 198.387H205.303Z" fill="#FC9F6F"/>
<path opacity="0.77" d="M128.864 172.056C130.276 172.056 131.419 170.911 131.419 169.501C131.419 168.09 130.276 166.947 128.864 166.947C127.454 166.947 126.31 168.09 126.31 169.501C126.31 170.911 127.454 172.056 128.864 172.056Z" fill="#F2F2F2"/>
<path opacity="0.77" d="M133.58 164.392C135.686 164.392 137.393 162.685 137.393 160.58C137.393 158.475 135.686 156.767 133.58 156.767C131.476 156.767 129.768 158.475 129.768 160.58C129.768 162.685 131.476 164.392 133.58 164.392Z" fill="#F2F2F2"/>
</svg>
