<svg width="48" height="48" viewBox="0 0 48 48" fill="none" xmlns="http://www.w3.org/2000/svg">
<path d="M23.9935 15.9966C19.5867 15.9966 15.9903 19.593 15.9903 24C15.9903 28.407 19.5867 32.0034 23.9935 32.0034C28.4004 32.0034 31.9968 28.407 31.9968 24C31.9968 19.593 28.4004 15.9966 23.9935 15.9966ZM47.9973 24C47.9973 20.6858 48.0273 17.4015 47.8412 14.0933C47.6551 10.2507 46.7785 6.84041 43.9687 4.03051C41.1528 1.2146 37.7486 0.344017 33.9061 0.157891C30.5919 -0.0282345 27.3077 0.00178587 23.9996 0.00178587C20.6854 0.00178587 17.4012 -0.0282345 14.093 0.157891C10.2505 0.344017 6.84028 1.22061 4.03043 4.03051C1.21458 6.84641 0.344011 10.2507 0.157888 14.0933C-0.028234 17.4075 0.00178584 20.6918 0.00178584 24C0.00178584 27.3082 -0.028234 30.5985 0.157888 33.9067C0.344011 37.7493 1.22059 41.1596 4.03043 43.9695C6.84628 46.7854 10.2505 47.656 14.093 47.8421C17.4072 48.0282 20.6914 47.9982 23.9996 47.9982C27.3137 47.9982 30.5979 48.0282 33.9061 47.8421C37.7486 47.656 41.1588 46.7794 43.9687 43.9695C46.7845 41.1536 47.6551 37.7493 47.8412 33.9067C48.0333 30.5985 47.9973 27.3142 47.9973 24ZM23.9935 36.3143C17.1791 36.3143 11.6795 30.8146 11.6795 24C11.6795 17.1854 17.1791 11.6857 23.9935 11.6857C30.808 11.6857 36.3076 17.1854 36.3076 24C36.3076 30.8146 30.808 36.3143 23.9935 36.3143ZM36.812 14.0573C35.2209 14.0573 33.9361 12.7724 33.9361 11.1813C33.9361 9.59026 35.2209 8.3054 36.812 8.3054C38.403 8.3054 39.6879 9.59026 39.6879 11.1813C39.6883 11.5591 39.6143 11.9333 39.4699 12.2825C39.3256 12.6316 39.1137 12.9488 38.8466 13.216C38.5794 13.4831 38.2622 13.695 37.9131 13.8393C37.564 13.9837 37.1898 14.0578 36.812 14.0573Z" fill="black"/>
</svg>
