<svg width="48" height="48" viewBox="0 0 48 48" fill="none" xmlns="http://www.w3.org/2000/svg">
<path d="M24 0C10.8 0 0 10.8193 0 24.1446C0 36.1928 8.78399 46.1928 20.256 48V31.1325H14.16V24.1446H20.256V18.8193C20.256 12.7711 23.832 9.44578 29.328 9.44578C31.944 9.44578 34.68 9.90362 34.68 9.90362V15.8554H31.656C28.68 15.8554 27.744 17.7108 27.744 19.6145V24.1446H34.416L33.336 31.1325H27.744V48C33.3994 47.1032 38.5492 44.2061 42.2638 39.8315C45.9783 35.4569 48.0128 29.8931 47.9999 24.1446C47.9999 10.8193 37.2 0 24 0Z" fill="black"/>
</svg>
