<svg width="48" height="48" viewBox="0 0 48 48" fill="none" xmlns="http://www.w3.org/2000/svg">
<path d="M24 0C10.7464 0 0 10.7464 0 24C0 37.2536 10.7464 48 24 48C37.2536 48 48 37.2536 48 24C48 10.7464 37.2536 0 24 0ZM35.5339 18.0911C35.55 18.3429 35.55 18.6054 35.55 18.8625C35.55 26.7268 29.5607 35.7857 18.6161 35.7857C15.2411 35.7857 12.1125 34.8054 9.47679 33.1179C9.95893 33.1714 10.4196 33.1929 10.9125 33.1929C13.6982 33.1929 16.2589 32.25 18.3 30.6536C15.6857 30.6 13.4893 28.8857 12.7393 26.5286C13.6554 26.6625 14.4804 26.6625 15.4232 26.4214C14.0771 26.1479 12.8672 25.4169 11.999 24.3524C11.1308 23.2879 10.658 21.9557 10.6607 20.5821V20.5071C11.4482 20.9518 12.375 21.225 13.3446 21.2625C12.5295 20.7193 11.861 19.9833 11.3985 19.1198C10.9359 18.2563 10.6935 17.2921 10.6929 16.3125C10.6929 15.2036 10.9821 14.1911 11.5018 13.3125C12.9959 15.1518 14.8603 16.6561 16.9739 17.7277C19.0875 18.7992 21.4029 19.414 23.7696 19.5321C22.9286 15.4875 25.95 12.2143 29.5821 12.2143C31.2964 12.2143 32.8393 12.9321 33.9268 14.0893C35.2714 13.8375 36.5571 13.3339 37.7036 12.6589C37.2589 14.0357 36.3268 15.1982 35.0893 15.9321C36.2893 15.8036 37.4464 15.4714 38.5179 15.0054C37.7089 16.1946 36.6964 17.25 35.5339 18.0911Z" fill="black"/>
</svg>
